<svg version="1.1" id="Layer_1" xmlns="http://www.w3.org/2000/svg" xmlns:xlink="http://www.w3.org/1999/xlink" x="0px" y="0px"
	 width="100%" viewBox="0 0 1024 816" enable-background="new 0 0 1024 816" xml:space="preserve">
<path fill="#000000" opacity="1.000000" stroke="none" 
	d="
M520.138916,338.582062 
	C554.597839,343.874298 579.258850,371.838104 580.390625,406.464813 
	C581.486816,440.002319 558.147888,469.892792 525.163940,477.194458 
	C485.723694,485.925446 447.842224,460.683136 440.663666,420.232635 
	C432.369995,373.498413 470.506775,333.894745 517.265625,337.993347 
	C518.087341,338.065399 518.890991,338.344055 520.138916,338.582062 
M506.499939,438.685455 
	C516.978149,438.688690 527.458252,438.576996 537.933655,438.751678 
	C542.135254,438.821716 543.128967,437.481995 542.005127,433.401733 
	C538.575806,420.950500 526.302673,410.380280 513.620605,409.352417 
	C498.862152,408.156311 484.981567,416.006134 479.556641,428.807831 
	C478.317841,431.731140 476.445618,434.657837 477.548523,438.685059 
	C486.933807,438.685059 496.216858,438.685059 506.499939,438.685455 
M522.507996,397.991516 
	C527.541504,392.189789 529.031799,385.738098 525.646423,378.647827 
	C522.584534,372.234985 517.201904,368.698883 510.215759,368.517029 
	C503.199524,368.334351 497.760681,371.707977 494.413849,377.987213 
	C490.660370,385.029419 492.534424,394.630188 498.449890,399.376251 
	C506.003387,405.436584 514.114197,405.138184 522.507996,397.991516 
z"/>
<path fill="#000000" opacity="1.000000" stroke="none" 
	d="
M426.126801,218.912415 
	C423.092682,201.689987 427.182617,187.302811 441.878906,177.511414 
	C455.653381,168.334167 470.188873,168.296829 484.042480,177.305832 
	C496.847565,185.633026 502.681763,198.144699 500.990326,213.245880 
	C499.075897,230.337860 489.240448,241.524063 472.591888,246.144135 
	C452.736176,251.654160 432.786621,239.951584 426.126801,218.912415 
M446.165131,223.676895 
	C446.640442,225.164459 447.928802,225.015503 449.050201,225.016220 
	C458.530701,225.022278 468.011261,224.999664 477.491669,224.956940 
	C478.471619,224.952530 479.528625,224.927048 480.019867,223.782928 
	C478.276917,215.668976 472.186798,210.465988 463.995605,210.092850 
	C455.294678,209.696472 449.137085,214.160400 446.165131,223.676895 
M461.815033,205.847305 
	C469.144470,205.730469 473.718628,201.078110 472.118774,195.367432 
	C470.752960,190.492294 466.924225,187.642273 462.173218,188.170090 
	C457.936188,188.640808 455.100830,190.858826 454.358063,195.241577 
	C453.467804,200.494873 455.567169,203.772964 461.815033,205.847305 
z"/>
<path fill="#000000" opacity="1.000000" stroke="none" 
	d="
M736.970581,318.172852 
	C745.368835,302.093414 759.988953,294.506073 777.719360,296.753693 
	C792.494690,298.626709 805.952087,311.127716 808.818726,326.683014 
	C813.220337,350.567291 798.668884,367.324707 779.885925,371.761902 
	C759.445435,376.590668 739.208984,363.549194 734.356079,343.356140 
	C732.279419,334.715332 733.223877,326.525055 736.970581,318.172852 
M781.872437,338.527069 
	C769.508057,331.671387 755.980957,337.278900 754.848755,349.777802 
	C756.173767,351.195831 757.942627,350.660553 759.530334,350.676605 
	C766.187500,350.743774 772.851440,350.874847 779.500854,350.641174 
	C782.494568,350.536011 786.961609,352.403046 788.170105,349.251556 
	C789.488159,345.814270 786.203918,342.559692 783.625000,339.897522 
	C783.280457,339.541870 782.853149,339.266327 781.872437,338.527069 
M780.491638,324.797882 
	C780.543274,323.801819 780.715027,322.794861 780.626160,321.811523 
	C780.210632,317.213837 777.391418,314.463348 773.161377,313.569733 
	C769.252197,312.743866 765.960754,314.415070 763.820312,317.877563 
	C761.504150,321.624329 762.069519,325.209290 764.843994,328.464081 
	C769.357056,333.758484 776.160889,332.435242 780.491638,324.797882 
z"/>
<path fill="#000000" opacity="1.000000" stroke="none" 
	d="
M308.528320,245.167114 
	C288.776001,241.355942 278.640961,224.953125 278.792114,209.187836 
	C278.966339,191.015869 293.445526,175.663223 312.658264,174.297318 
	C329.737762,173.083084 345.521057,185.021713 349.288727,201.956802 
	C354.368744,224.790527 337.882843,245.367325 314.457153,245.331940 
	C312.627502,245.329178 310.797913,245.275040 308.528320,245.167114 
M326.632416,215.873962 
	C320.927521,210.492020 314.240234,209.618134 307.315247,212.560501 
	C302.460419,214.623276 299.210938,218.462921 298.936432,224.188446 
	C309.679688,224.188446 319.936401,224.188446 330.204620,224.188446 
	C330.183075,220.747910 328.684235,218.570038 326.632416,215.873962 
M309.775970,205.740479 
	C315.382416,208.332489 320.266327,206.968536 322.176849,202.277283 
	C324.134338,197.470612 322.100830,192.687363 317.300720,190.913559 
	C313.280121,189.427826 309.993561,190.812973 307.792725,194.144684 
	C305.201172,198.067871 305.658356,201.966644 309.775970,205.740479 
z"/>
<path fill="#000000" opacity="1.000000" stroke="none" 
	d="
M586.718750,662.936035 
	C583.787109,647.037903 592.751038,630.290649 606.966736,624.598999 
	C623.645081,617.921326 640.777588,622.992615 650.511169,637.488220 
	C659.489014,650.858398 657.451172,668.989929 646.356995,680.690857 
	C627.431946,700.650818 592.992859,692.016663 586.718750,662.936035 
M610.005981,670.913208 
	C618.720886,670.913208 627.435852,670.913208 636.222168,670.913208 
	C635.431946,663.286072 629.449463,657.820007 622.383240,657.343323 
	C615.208435,656.859375 607.498779,661.978943 606.046692,667.979492 
	C605.287659,671.116272 607.380066,670.727173 610.005981,670.913208 
M629.037964,645.501526 
	C628.293152,640.192505 625.279358,637.182373 620.921936,637.395386 
	C616.696228,637.601929 612.950989,641.193359 612.681641,645.297363 
	C612.438782,648.995850 615.924500,653.100769 619.776184,653.652283 
	C624.611877,654.344727 627.759827,651.845032 629.037964,645.501526 
z"/>
<path fill="#000000" opacity="1.000000" stroke="none" 
	d="
M357.475281,361.462372 
	C378.331421,343.244263 409.703461,353.771729 415.040955,380.449127 
	C418.841003,399.442108 404.523987,418.363068 385.297485,420.508240 
	C367.389862,422.506287 355.511200,412.832520 350.185944,402.081604 
	C343.281158,388.141754 345.978546,373.367004 357.475281,361.462372 
M370.001465,400.958069 
	C378.682953,400.958069 387.364410,400.958069 396.251892,400.958069 
	C394.540924,392.601532 389.253754,387.936768 381.888184,387.297638 
	C375.829620,386.771881 368.643677,391.382080 366.369751,397.047852 
	C365.168152,400.041840 366.253235,401.057953 370.001465,400.958069 
M380.584625,384.132721 
	C388.005127,384.305847 390.977936,375.979187 387.657318,371.401489 
	C385.302399,368.155060 382.065613,367.242340 378.437531,368.344421 
	C374.957489,369.401489 372.715332,372.188629 372.736359,375.715179 
	C372.762756,380.147064 375.455414,383.014740 380.584625,384.132721 
z"/>
<path fill="#000000" opacity="1.000000" stroke="none" 
	d="
M400.456207,659.703979 
	C407.147736,646.064331 420.949493,638.329163 434.425385,640.413513 
	C449.155579,642.691895 460.075348,653.484863 462.388031,667.761047 
	C465.012451,683.961609 455.555481,696.807556 445.485535,702.021118 
	C433.957306,707.989807 417.955811,706.118408 408.157288,697.150391 
	C398.002197,687.856079 394.866760,673.075012 400.456207,659.703979 
M416.231995,684.156799 
	C415.642151,686.975769 417.735443,686.599121 419.301331,686.622681 
	C424.109375,686.695251 428.922913,686.794495 433.726593,686.641479 
	C437.261200,686.528992 440.932373,687.447388 444.335327,685.862122 
	C443.447571,679.173767 438.998962,675.082642 431.568512,673.864075 
	C425.735077,672.907410 419.731720,676.716736 416.231995,684.156799 
M429.019379,670.285339 
	C432.818085,670.807800 435.347717,668.964783 436.990540,665.783325 
	C438.313507,663.221375 438.101929,660.627075 436.253937,658.358765 
	C434.219208,655.861206 431.566620,654.605042 428.358154,655.549377 
	C425.051086,656.522888 422.816559,658.979065 422.627441,662.312012 
	C422.411804,666.112183 424.567657,668.833557 429.019379,670.285339 
z"/>
<path fill="#000000" opacity="1.000000" stroke="none" 
	d="
M645.619141,314.678223 
	C653.067322,331.694153 642.095337,352.726807 621.283752,355.812225 
	C605.922913,358.089539 589.392029,344.637360 588.597961,329.128876 
	C588.020752,317.855591 591.119690,308.382141 600.642944,301.728729 
	C616.556091,290.610992 637.453430,296.529663 645.619141,314.678223 
M613.937927,327.397339 
	C609.139099,329.054504 605.799133,331.924530 604.997009,337.469208 
	C613.962708,337.469208 622.309448,337.469208 630.739807,337.469208 
	C628.916260,329.294495 622.888550,325.602753 613.937927,327.397339 
M617.625061,323.605377 
	C619.004211,323.716339 620.250183,323.319275 621.384521,322.568024 
	C624.487305,320.513123 626.210022,317.662933 624.452515,314.139832 
	C622.832886,310.892883 620.171570,308.585724 616.010071,310.060608 
	C612.055542,311.462158 610.765747,314.477203 611.464294,318.336090 
	C611.988831,321.234192 614.192322,322.733887 617.625061,323.605377 
z"/>
<path fill="#000000" opacity="1.000000" stroke="none" 
	d="
M694.211243,492.290253 
	C681.602295,487.251007 675.270752,476.271393 677.887817,464.601471 
	C680.467102,453.100067 690.583801,444.988037 701.999573,445.534180 
	C711.789429,446.002533 719.276794,450.549622 723.247314,459.579773 
	C727.164246,468.487885 726.237549,477.255707 719.814819,484.821411 
	C713.146667,492.676178 704.536255,494.928101 694.211243,492.290253 
M700.601196,479.108643 
	C704.103516,478.711639 707.813171,479.966156 711.178833,478.054291 
	C709.345154,472.482483 705.636475,469.895996 700.394836,470.331116 
	C695.343506,470.750427 692.368469,473.634277 691.763550,479.111176 
	C694.431335,479.111176 697.054077,479.111176 700.601196,479.108643 
M700.775879,456.579315 
	C699.900879,457.025696 698.871155,457.305267 698.178528,457.948090 
	C695.562500,460.375916 695.343750,463.180664 697.765198,465.775421 
	C700.078857,468.254700 702.814209,468.241211 705.108582,465.702942 
	C707.510559,463.045563 707.257751,460.246338 704.581970,457.887177 
	C703.774353,457.175201 702.527649,456.961395 700.775879,456.579315 
z"/>
<path fill="#000000" opacity="1.000000" stroke="none" 
	d="
M344.118530,541.476196 
	C350.558685,528.676880 362.846558,523.431030 374.992493,528.005371 
	C386.554108,532.359680 392.574066,544.021973 389.559204,556.224731 
	C386.402954,568.999756 373.671387,576.970032 361.385193,573.862488 
	C347.556641,570.364807 339.780579,557.677979 343.221313,544.212708 
	C343.426666,543.408997 343.713165,542.625977 344.118530,541.476196 
M363.365967,551.614258 
	C359.886108,552.973816 356.964600,554.808655 356.635162,559.660583 
	C363.367462,560.165588 369.755157,560.297241 376.347443,559.554199 
	C374.247772,553.066345 370.982239,551.040955 363.365967,551.614258 
M367.041046,548.256104 
	C368.020874,547.679260 369.122681,547.239319 369.955414,546.497375 
	C371.747406,544.900757 372.213379,542.815796 371.094208,540.697083 
	C370.052490,538.725098 368.337158,537.225830 365.961548,537.544250 
	C363.509735,537.872864 361.643005,539.386902 361.264191,541.943420 
	C360.700684,545.745911 362.685364,547.786194 367.041046,548.256104 
z"/>
<path fill="#000000" opacity="1.000000" stroke="none" 
	d="
M327.775452,282.224731 
	C329.717316,271.080353 335.008118,263.324127 346.165009,260.573212 
	C359.632904,257.252502 372.335449,265.326965 375.420898,279.242493 
	C378.160736,291.599182 369.341675,304.682892 356.576111,307.200165 
	C341.323914,310.207794 328.659973,299.427460 327.775452,282.224731 
M345.348145,286.683716 
	C343.803558,288.310089 341.736572,289.678375 342.474243,292.765503 
	C348.963409,292.765503 355.423737,292.765503 361.999664,292.765503 
	C359.626312,284.826569 353.474915,282.466400 345.348145,286.683716 
M356.154266,273.141693 
	C353.674652,270.586365 350.923676,270.362610 348.275848,272.656250 
	C346.148407,274.499084 345.746460,276.907806 347.505188,279.294800 
	C349.163605,281.545593 351.482666,282.417206 354.029480,281.121399 
	C357.097290,279.560547 358.236053,277.052185 356.154266,273.141693 
z"/>
<path fill="#000000" opacity="1.000000" stroke="none" 
	d="
M690.278809,199.219208 
	C673.450439,215.614990 652.625854,203.872971 649.390808,189.692490 
	C646.849976,178.554993 650.981934,167.810043 660.690857,162.347458 
	C670.194153,157.000580 682.103699,158.913559 689.915100,167.041626 
	C697.349426,174.777328 698.406372,186.532318 692.507874,196.073502 
	C691.896423,197.062546 691.186340,197.990616 690.278809,199.219208 
M676.238037,192.955322 
	C678.147217,192.723907 680.210388,193.490585 681.949585,192.146790 
	C680.983765,186.720352 677.009338,183.685516 671.502930,184.108749 
	C666.337891,184.505737 663.202454,187.515259 663.024414,192.411331 
	C667.064819,193.498535 671.218018,192.713211 676.238037,192.955322 
M668.130127,172.774323 
	C666.629517,175.884705 666.831848,178.777435 670.081604,180.446060 
	C672.489136,181.682266 675.042053,181.118500 676.720886,178.755539 
	C678.232422,176.628113 678.292908,174.257462 676.436951,172.355164 
	C673.993958,169.851181 671.255310,169.547501 668.130127,172.774323 
z"/>
<path fill="#000000" opacity="1.000000" stroke="none" 
	d="
M213.224747,363.335205 
	C221.139938,354.168732 230.914230,351.586853 241.258789,355.707092 
	C251.124481,359.636658 256.543579,368.448151 256.127136,379.883026 
	C255.795807,388.979645 248.643661,397.797180 239.274399,400.659973 
	C229.520813,403.640259 218.819702,400.186493 212.972992,392.171234 
	C207.029282,384.023010 207.037445,372.674774 213.224747,363.335205 
M225.274521,387.646576 
	C230.821136,387.468933 236.414139,388.110992 242.012726,387.275421 
	C240.853821,381.841949 237.557907,378.556213 232.826996,378.581482 
	C228.500534,378.604675 224.765488,380.302521 222.703598,384.569000 
	C221.716187,386.612152 221.955887,387.746490 225.274521,387.646576 
M227.219254,369.729645 
	C227.098343,373.126404 228.123917,375.536469 232.068222,375.667572 
	C235.038834,375.766296 236.721069,374.144775 237.442871,371.555267 
	C238.232895,368.721008 236.791779,366.582642 234.258347,365.668060 
	C231.100052,364.527924 228.385818,365.239471 227.219254,369.729645 
z"/>
<path fill="#000000" opacity="1.000000" stroke="none" 
	d="
M497.213989,598.869507 
	C504.125519,608.624390 502.177673,619.874512 492.883728,625.545654 
	C484.275452,630.798218 472.720367,627.376831 468.221436,618.243225 
	C464.642883,610.978088 466.829376,601.140564 473.029816,596.609131 
	C480.843353,590.898865 489.433258,591.606750 497.213989,598.869507 
M483.542725,616.889893 
	C485.720673,616.515991 488.180237,617.660706 490.224365,615.693665 
	C489.016785,612.226868 486.373138,611.129639 483.169342,611.490601 
	C480.569031,611.783691 478.067017,612.674744 477.597137,615.780701 
	C479.352142,617.311829 481.091278,616.713440 483.542725,616.889893 
M480.861176,606.658325 
	C482.254852,608.519531 483.897797,609.038086 485.898132,607.584045 
	C487.196808,606.640015 488.015747,605.446472 487.288361,603.822876 
	C486.654388,602.407898 485.544006,601.292358 483.882111,601.521912 
	C481.345123,601.872253 480.317139,603.539062 480.861176,606.658325 
z"/>
<path fill="#000000" opacity="1.000000" stroke="none" 
	d="
M772.632874,494.662720 
	C780.385254,470.689178 784.465698,446.357483 786.940430,421.692993 
	C795.583618,434.309082 773.164124,512.322998 752.025146,549.197021 
	C729.148987,589.101257 683.334900,632.780151 673.924805,632.557556 
	C673.179321,630.264526 675.245300,629.759277 676.430359,628.849365 
	C699.155579,611.400574 718.998047,591.170166 735.602051,567.789917 
	C749.950195,547.586060 761.348572,525.839600 769.834839,502.562500 
	C770.746643,500.061432 771.630859,497.550293 772.632874,494.662720 
z"/>
<path fill="#000000" opacity="1.000000" stroke="none" 
	d="
M345.922119,635.124023 
	C289.802979,593.546082 253.323624,539.292969 237.216400,471.595215 
	C234.633331,460.738678 232.219559,449.748016 233.537582,438.262939 
	C238.485916,465.148865 244.702805,491.574463 255.546631,516.726074 
	C266.577026,542.310486 281.023468,565.740112 298.971985,587.021423 
	C316.690735,608.030273 337.590424,625.547607 359.672241,641.991089 
	C353.929382,642.008728 350.484009,637.845520 345.922119,635.124023 
z"/>
<path fill="#000000" opacity="1.000000" stroke="none" 
	d="
M593.561768,141.332138 
	C603.655579,144.642227 613.476440,147.581741 622.140381,153.905457 
	C541.126648,121.813850 461.495209,124.158836 383.227081,162.172333 
	C381.598816,158.964890 383.907745,158.494293 385.381439,157.767426 
	C409.722504,145.761780 435.258453,137.501907 461.994141,132.688187 
	C484.089874,128.709885 506.315918,127.791985 528.615845,129.138504 
	C550.594910,130.465652 572.147034,134.576813 593.561768,141.332138 
z"/>
<path fill="#000000" opacity="1.000000" stroke="none" 
	d="
M589.715210,513.141235 
	C596.377197,519.731140 597.677734,525.872620 594.092163,532.650269 
	C590.772766,538.924744 584.482239,541.793640 577.387451,540.551880 
	C570.928406,539.421448 566.984131,535.700745 565.321716,529.488647 
	C563.661682,523.285645 565.138245,517.817261 570.093628,513.735596 
	C574.899353,509.777191 580.392883,508.439362 586.364197,511.234955 
	C587.414490,511.726624 588.403503,512.348938 589.715210,513.141235 
M575.070740,529.280518 
	C574.614014,530.389832 574.764404,531.414124 576.090271,531.488770 
	C579.334534,531.671448 582.623169,532.082520 585.921936,531.107361 
	C583.338318,525.532593 580.315613,524.924622 575.070740,529.280518 
M583.356323,520.672546 
	C582.566467,518.429321 581.397949,516.649963 578.754944,518.281555 
	C577.204529,519.238647 576.542725,521.036743 577.906555,522.471313 
	C580.061707,524.738281 581.944031,523.844604 583.356323,520.672546 
z"/>
<path fill="#000000" opacity="1.000000" stroke="none" 
	d="
M609.615967,590.701355 
	C582.398499,605.261047 553.909119,613.781921 522.667297,615.515808 
	C523.840149,611.633789 526.115784,612.000549 527.912170,611.821167 
	C580.098206,606.607422 624.198547,584.917725 660.141235,546.768372 
	C665.035339,541.573792 669.181091,535.678711 673.770264,530.188904 
	C674.819519,528.933838 675.664673,526.145142 677.810364,527.620300 
	C680.085754,529.184692 677.724060,530.848511 676.740417,532.150452 
	C659.474792,555.003113 638.804199,574.055481 613.840698,588.290100 
	C612.539062,589.032288 611.234558,589.769409 609.615967,590.701355 
z"/>
<path fill="#000000" opacity="1.000000" stroke="none" 
	d="
M673.698730,280.338806 
	C676.847595,284.706268 680.301697,288.479828 682.368774,293.502472 
	C679.288574,294.590271 678.509399,292.583099 677.564880,291.236053 
	C657.850891,263.122101 632.511169,241.492325 601.990417,225.929642 
	C582.738892,216.113159 562.385986,209.614502 541.005737,206.225403 
	C536.879700,205.571381 532.344421,206.128403 528.338867,203.338272 
	C530.635559,200.624252 533.440979,201.777374 535.780212,202.097870 
	C576.529175,207.681061 612.865967,223.379517 644.408569,249.897568 
	C655.148926,258.927063 664.761902,269.064850 673.698730,280.338806 
z"/>
<path fill="#000000" opacity="1.000000" stroke="none" 
	d="
M315.714569,344.639587 
	C299.167480,395.846466 303.023071,445.669342 324.335358,494.486938 
	C320.376953,495.304810 320.157806,493.037659 319.498901,491.517029 
	C311.510712,473.080872 306.372986,453.865021 303.700562,433.956726 
	C298.822754,397.619354 304.492767,362.717285 317.853760,328.852295 
	C319.073792,325.759949 320.579132,322.774994 322.056061,319.791718 
	C322.680145,318.531158 323.081757,316.832245 326.213165,317.224274 
	C323.213165,326.571655 318.315033,335.003326 315.714569,344.639587 
z"/>
<path fill="#000000" opacity="1.000000" stroke="none" 
	d="
M628.404968,472.411072 
	C647.299194,436.397430 649.623535,399.368835 636.528564,361.285156 
	C640.295166,360.745850 640.556335,362.934479 641.055298,364.545929 
	C655.946594,412.641052 647.584595,456.450562 616.729919,496.099030 
	C613.343323,500.450806 609.470642,504.342133 605.501343,508.141785 
	C604.355896,509.238220 603.485901,510.884827 601.209412,510.657440 
	C599.469055,508.152222 601.630371,506.820679 603.062317,505.469238 
	C613.203552,495.898071 621.485718,484.911194 628.404968,472.411072 
z"/>
<path fill="#000000" opacity="1.000000" stroke="none" 
	d="
M428.759644,520.285278 
	C404.948395,502.842133 377.557037,463.988159 380.179199,451.342896 
	C382.611328,451.440521 382.806854,453.508392 383.416077,455.086090 
	C396.673126,489.417542 419.955719,514.475769 453.041901,530.504517 
	C454.578583,531.248962 456.695068,531.465027 456.997162,534.011169 
	C455.262970,536.144226 453.435974,534.669739 451.791199,533.902527 
	C443.783234,530.167419 436.183685,525.722534 428.759644,520.285278 
z"/>
<path fill="#000000" opacity="1.000000" stroke="none" 
	d="
M438.229553,290.146057 
	C466.176086,274.105469 512.322510,264.342316 522.797729,273.421509 
	C481.647675,271.537872 446.108704,283.239960 416.216675,311.000061 
	C415.798767,310.243713 415.380890,309.487366 414.963013,308.730988 
	C421.130951,300.891602 429.681610,295.795197 438.229553,290.146057 
z"/>
<path fill="#000000" opacity="1.000000" stroke="none" 
	d="
M556.928467,684.191650 
	C550.296936,685.149780 544.108521,686.082275 537.909546,686.938904 
	C535.874634,687.220032 533.633911,688.021606 531.576233,684.604553 
	C542.890137,682.736877 553.622742,680.528564 565.581909,679.817932 
	C563.342712,684.358276 560.006042,683.464111 556.928467,684.191650 
z"/>
<path fill="#000000" opacity="1.000000" stroke="none" 
	d="
M253.043411,297.126404 
	C254.632828,294.156891 254.931946,290.770172 258.067139,289.038849 
	C259.015900,292.083527 250.053513,315.968689 246.776855,319.691284 
	C244.885300,316.324860 244.893005,316.296906 253.043411,297.126404 
z"/>
<path fill="#000000" opacity="1.000000" stroke="none" 
	d="
M727.405273,237.578735 
	C723.891357,233.223572 720.588989,229.156754 717.030823,224.774857 
	C721.885254,224.051865 738.027466,243.481949 738.735596,250.967773 
	C733.391968,247.150406 731.112244,241.939987 727.405273,237.578735 
z"/>
<path fill="#000000" opacity="1.000000" stroke="none" 
	d="
M435.928284,601.312988 
	C427.219452,599.967651 419.967407,595.865784 412.621429,591.557068 
	C414.408142,588.751099 415.827271,589.512695 417.148193,590.200928 
	C422.609985,593.046387 428.117462,595.777771 433.934723,597.850037 
	C435.334717,598.348694 436.843048,599.000671 435.928284,601.312988 
z"/>
<path fill="#000000" opacity="1.000000" stroke="none" 
	d="
M715.313354,400.298706 
	C713.806030,397.021393 712.374573,378.594147 713.096741,376.151245 
	C715.358765,375.897705 715.359802,377.836792 715.592712,379.093445 
	C716.737549,385.271362 717.177124,391.530029 717.277832,397.808868 
	C717.296387,398.963318 717.235718,400.192047 715.313354,400.298706 
z"/>
<path fill="#000000" opacity="1.000000" stroke="none" 
	d="
M389.267456,243.313110 
	C386.208832,245.213577 384.063965,247.907883 380.730408,248.921707 
	C380.425140,244.949295 392.319946,235.313858 399.630554,233.332031 
	C399.654388,235.607605 399.654388,235.607605 389.267456,243.313110 
z"/>
<path fill="#000000" opacity="1.000000" stroke="none" 
	d="
M551.268555,536.585938 
	C553.417908,536.577698 554.833374,537.030823 553.339111,539.099854 
	C551.941284,541.035400 540.613342,542.971558 537.586121,541.450928 
	C541.882874,538.544495 546.662598,538.248535 551.268555,536.585938 
z"/>
<path fill="#000000" opacity="1.000000" stroke="none" 
	d="
M580.572021,293.456116 
	C578.138489,291.411163 574.629333,291.181183 573.251465,286.800629 
	C579.807800,287.993439 583.908691,291.658630 588.842163,295.216034 
	C584.791382,297.903137 583.144043,294.587891 580.572021,293.456116 
z"/>
</svg>