<?xml version="1.0" encoding="UTF-8"?>
<svg version="1.1" viewBox="0 0 1600 1143" width="1280" height="1280" xmlns="http://www.w3.org/2000/svg">
<path transform="translate(0)" d="m0 0h1600v1143h-1600z" fill="#322562"/>
<path transform="translate(0,14)" d="m0 0 3 3 4 8 10 19 12 21 8 15 6 11 14 27 7 12 8 16 12 23 14 27 12 22 12 23 8 15 12 22 13 25 12 22 11 22 12 22 12 23 24 44 8 16 13 25 10 18 8 16 9 16 8 16 10 19 8 16 12 22 12 23 11 19 16 25 15 22 13 18 13 16 11 14 8 10 9 11 14 15 7 8 7 7 7 8 19 19 8 7 12 11 8 7 13 11 14 11 11 9 2 1v2l5 2 10 8 8 6 2 1v2l5 2 8 5v2l5 2 10 6 9 6 22 13 39 22 5 2 19 10 24 11 24 10 17 6 22 8 50 15 35 8 38 7 38 5 38 3 32 1h25l46-2 39-4 34-5 30-6 40-10 39-12 20-7 29-11 20-8 14-7 20-9 22-12 9-5 24-14 19-12 15-10 11-8 8-6 5-4h2v-2l4-1v-2l5-2v-2l24-18h2v-2l5-2v-2l5-2 1-3 8-6 5-4 5-5h2v-2l9-7 12-11 8-7 20-18 5-4h2v360h-1600z" fill="#6A2769"/>
<path transform="translate(1598,783)" d="m0 0h2v360h-1167v-2l3-2 6 1 2-1 2 1-2-2h-2l-1-5h8l1-6 4-1 3 1 1-2-2-1 2-2v-2h2v-3l-3-1 2-1 2 1 1-2h2l1-2-7 2-5 5-1-3v-8l1-2-5 1-2-1 2 4h-3l2 2-4 1-2-5-4-4 2-2 1 1 1-2-2-1 4-1-6-3-1-3-2 4v-2l-3-1-3 2-1-5h-4v-3h2v-2h2l1 3 1-3-2-2 3-2-3-2-3 1-2-4 4-6-5-2 1-3h2v-2l-3-1 2-1-1-2h2v-2l5-5v-2l-2 2-1-1h-2l-1-5v-3l-1-7 3-2 1 3 3-4 1-8-2 7-2-1v2l-3-1-1-7 1-6-1-1v-6l1-2-2-1 1-8-1-22 2-6-1-1v-5l3-2 4 2 1-2-2-1h2v-3l-2-1 1-2 1-3-1-4-3 1v-2h2v-4l4-1-1 4 3-1h1l3-2 1-3-5-2-2-4h-2l-1 2-1-3h-2l2-5h3l-2-2 1-5-3-2v-9l5-1v3l5-1v2l4-2v-2l-4-3 4-2 1-3h2v-2h5l1-1 1-5-6 2-1-4h2l-1-3h2v2h2v-3l2-2-1-2 2-2-3-5 1-4 2-3h2v2l6 1 5-1v-3l2 1-1 6h-2v-2h-2v7h2l1-4h3v2l6-3h6v2l5-1-2-3h4v-2l-2-1h3v3l2 1-3 1 2 4 3-1v3l2-2v-2l5-1v2l7-2h5l1 4 11 1 2-1v2l3-1 6 5 3-1h3v-5h-2v-3h-2l-1-4h-2l-3-3-5-3-1-5 1-3-4-1-1-4h-2v-2h-2l1-2 7 4 11 9 5 4 2 1v2l5 2 10 8 8 6 2 1v2l5 2 8 5v2l5 2 10 6 9 6 22 13 39 22 5 2 19 10 24 11 24 10 17 6 22 8 50 15 35 8 38 7 38 5 38 3 32 1h25l46-2 39-4 34-5 30-6 40-10 39-12 20-7 29-11 20-8 14-7 20-9 22-12 9-5 24-14 19-12 15-10 11-8 8-6 5-4h2v-2l4-1v-2l5-2v-2l24-18h2v-2l5-2v-2l5-2 1-3 8-6 5-4 5-5h2v-2l9-7 12-11 8-7 20-18z" fill="#892562"/>
<path transform="translate(1300,68)" d="m0 0h7v50h14v27l14-9 19-13 1-2-6-2-11-5 2-2 43-10 8-1-5 9-21 32-4 4-2-18-4 2-13 9-19 13h-2l1 68-1 1-13 1 1 50 4 5v10l-1 7-3 3-9 4-9 6-8 5-4 8v8l2 2v6l-1 4-1 10-4 10v10l-1 10 1 4v56l-3 8v25l-1 15 2 5-2 18-1 22-1 17-2 7v12l-1 9-1 8-3 4 2 7 2 9 3 4v2l-9 4 9-3 16-4 8-1h17l15 2 12 4 10 5 9 7 7 7 8 13 6 18 3 20v15l-2 18-5 17-6 12-7 9-10 9-16 8-15 4-8 1h-19l-17-3-11-4-11-6-11-10-7-10-6-13-3-11-2-3h-2l1 4 2 1-1 6 9 18 7 9v2l4 2 8 8 3 5 6 7v5l-5 4h-2l-1 4-4 1-11-6-12-7-2-5-1-7-5-2-2-1v-6l-4-10-4-5-5-5-4-7-4-6-4 1-4 2-7-1h-4l-12 3-4 2h-8l-6-1-1-2-8 1-4-4-1-2 6-1 10 1 8-2 1-3 9-2 4-2 5-2 1-3h3l1-5 4-3h3v-2h3l2-4 1-4h-2l-2 4-4 5-11 7-13 5-11 2-28 1-1 57-7 1h-27l-1-4v-91l1-69 41-1-21-6v-7l2-5v-20l-2-6 2-9 3-3-7 2-8-1-9-4-8-7-5-8-3-8v-11l-6-1-10-9-5-9-2-10 3-6 5-4h7l10 5 8 8 4 7v2h7l9 4 11 8 5 7 2 1-3-6v-2h-2l-1-4 3-4h2v-2l13-4h-27l-13-2-6-4-2-3-1-11 1-35 5-5 9-3 6-1h27l9 2v-42l3-4-2-2 2-5 2-7 4-18 3-14 4-1 2-9v-3l-1-4 1-16 2-6 4 2-1 1 1 4 1-26h-15v-39l-14 8-14 9h-2v59l-1 1h-14v104l-5 1-1-1v-104h-15v-24l-8 7-11 12-8 10-14 15-6 4-26 7-25 6-1 57-1 1h-36l-1-24-13 19-8 11-12 17-10 14-3-2-8-16-10-17-22-40-8-14-2-1 1 41v22l-1 1h-36l-1-129-6-11-15-25-5-5-6-9-2-1-2 6-3 3h-10l1 27v19l-1 1h-6l-3-3 1-43-2-1-13-1-1-6v-10l-5 3-8 11-16 21-2 3v37l-1 38-1 1h-14v51l-1 1h-5v-52h-15l-1-1-1-17-6 11-12 19-15 24-12 20-2 4-4-4-8-14-7-10-7-11-20-32-1 31-1 1h-14v22h-6l-1-1v-21h-14l-1-36v-97l1-1h14v-50l1-1h5l1 1v50h14l1 1 1 88 17 28 2 4 7 4 1-10 1-1 12-1 1-47 6-2 2 2 1 43 2 4h4v-8l1-2h25l2-5 9-14 1-27v-47l1-1h15v-51h6v51l15-1 1 1 1 16 12-15 12-17 6-8 7-9 11-15 1-2 3 1 13 22 9 15 24 39 4 7 1-2v-34l1-30h36l1 1v130l7 14 12 22 10 18 11 19 6 11 5 9h3l2-4 12-17 10-14 14-20 3-4 1-70h15v-50l1-1h5l1 2v48l14 1 1 1v38l31-7 23-6 9-10 9-11 13-15 12-14 1-2 1-68h36l1 3 1 32 23-14 4-3v-56l1-1h15v-26l5-1 1 1v26h16l1 49 30 5 2 1v-28l1-3h16l-1-7-1-26 1-2 6-1 2 1v35h21l10-13 9-12 1-63h15z" fill="#4C2764"/>
<path transform="translate(219,481)" d="m0 0 3 1v2l5 1v5l-3 2h-3l2 1 3 5 3 1-1 2 2 1 1 3 3-1 3 3-2 4 4 1 1-2 3 1 1 6v2l3 1v2h2l1 4h2v2h2v3l2 1 1 7 4 3 1 2 3-1h2l-4-5-1-6 1-2-3-1 1-4h2l1-3 2 1v3h2l5 9v2h2l4 4v3h2l3 5v2h2l12 23 15 28 10 19 6 10 6 11 16 25 15 22 13 18 13 16 11 14 8 10 9 11 14 15 7 8 7 7 7 8 19 19 8 7 12 11 8 7 13 11 4 4-1 1v2h2l3 3v2h2l1 3h-2l1 5 5 2 3 2v2h2l1 4h2v3h2l1 5-8 2-6-5h-10l-5-2-1-3-8 1-2 1-2-1v-2l-4 2 1 2h-2l-2 2-1-3-4-1v-3l2-1-1-4-1 3-2 1v3l-3 1-5-2h-4l2 2h-7-3l-1 2h-2l-1-4 1-3h2l1-1 1-3-1-1v3l-6 2-2 2v-4h-3v-2h-2l-2 4 1 5 2 4-2 2v3h-2v3h-2l-1 1v3l2-2 3 1v2l3 1-4 2 1 3-7-2v2l3 1h-5l-4 4 5 4-4 5v-2l-3 1-1-1-5 1v-2h2l-1-2-3 1v7l4 4-2 4 2 3-4-1-2 5h2l1 2 4-2 2 5 4 2-1 4-3 3h-3l-2-2v-2l-2 4h2l1 9-1 1 1 2-2 6h-3l-2-2-1 1v5l1 2-2 6 1 22-1 7 1 3v6l1 2-2 10 2 1h1l1-7 2 2 2-1v8l-4 5-2-3-2 4 2 1v6l1 2 1-1 2 3 2-1-1 5-3 3h-2l-1 3 2 2-1 3h-2l1 3 4 2-4 5 1 4 3-2 3 2v3 3l-2 4-1-4h-2l-1 5 2 1 1-2 2 4 2-2 3 3 2-3 4 4 1 2 3 1-2 2h-1l-2 4 4 4v4l3-1-2-3h3l-1-3h7l1 4v3l-2 1 1 4 3-1 2-4 7-2v3l-2 2h-4l1 4h-2l1 3-1 5-4-1h-3v3h-2v3l-6 1-1 4 3-1 1 3-4 1-6-1-3 1v2h-230l2-5 2-1-1-3 1-4h2l2-4v-1l-4-2-1-7-6-3 1-2h1v-3l-2-1 1-3-4-2 1-5-2-4 1-11-2-7-2-10 3-5-2-1 1-8-1-7 2-9v-6h3v-11l-1 6-2-3v-37l-1-3 1-5v-5h3l1-9-1-17v-38l1-4-2-2-2-1v-13l2-1v11l2-7-1-8v-4l-4-4 1-5v-16l-2-4h2v-26h-2v-17l1-7-1-5v-21l1-2h2l1-5-3-3-1-9-1-7 1-5v-18l-1-8 1-11-1-7v-6l1-3-1-10v-6l-1-5v-12l1-2-2-11v-4-9l2-3-2-4 1-2-1-6 1-6 1-4-3-6 2-5v-7l-3-1 3-2v-3l1-1h-2l1-4-2-1 1-7-2-7v-3h2l-1-9 1-4v-2l-1-6 4-2v-3l5-1v-2l-2-1v-3l-3 1-1-5 5-2-2-1v-3-11l6-2-2-5h5l-3-4 1-2 3 1v-2l-2-1h6l3-5 4-1z" fill="#762666"/>
<path transform="translate(1586,100)" d="m0 0 14 1v510l-5 10v8l-1 5v8l-2 1-1-2-1 2-3 2 1 5-3 1 1 3-1 3-1 14-1 9-3 6-3 11v7h-2v2l-2 1-4 8-5 4-5 10-4 12-1 11-3 12h-3l-1 6-2 4h-2l-1 5h-2l-1 7-6 7-5 8-2 6-3 1-3-3-1-5-2-1v-2l-8 3-3-2v-2h-2l-1 6-5 4-2-1v2l-9 2-9 3-1-2-3 5-9 2-3 3-4 1-6-1-4 1-7-3-10-7-5-3v-2h-6l-1-5v-6h-2l-4-9 1-7h-3l-2-7-2-4v-5l-4-4 1-6v-14l-1-14v-10l2-16 2-5 1-7 1-1-1-10-5-10-3-9-1-5v-6l-1-5-4-32-2-6-2-18v-14l-1-18v-21l1-7-1-4v-36l1-18 1-14 2-17 1-12 2-10 5-12 2-9 5 1 4 9 11 4 10 1 7-1 1-4 3-7v-9l-1-2 1-15-5-16-4-2-3 3-3 13-1 9-3 2-16 2-9 1-13-2-3-3v-68l-1-5 2-4h2l2-4 4-1 4-18v-7l1-4h2l2-25-1-20-1-4v-7l3-10 2-1 1-2 4 3 3 5v2l10 5v-2h8l8-5 4-12-1-4h2l1-56 3-3 13-2h4l1-4 3-1 3 3 16 1 1 2 1 43 2 15 4 13v2h3l3 6 4-2 4 1 11 7 2-5 1-19 1-23 2-3 1-5 4 3 2 6-1 2v7l2 9 1 11 2 12v9l1 12 1-2-1-4 1-3 1-12 5-1h2l4 10h3l5 1 3 12v20l1 5-1 31v30l-1 16v7l-4 20-3 8 1 5-2 2v18l3 4 3 5 1 3 7-1v-41l-1-39v-37l2-90 2-94 4-1 10-1z" fill="#4B2664"/>
<path transform="translate(1598,783)" d="m0 0h2v360h-599v-1l9-2 4-4h6l4-3 4 1h3l3-3 3-1 4-5 2 1-1-4v-2l-1-2h7l-1-5-4-2v-3h-4v-2l-5-2-3-1-1-3 1-2-10-2-3-5 2-3 2 2 1-4h2v-2l7-2v-6h2v-2l7-2 1-2 4-1 3-3-1-3 3-1 1 1 4-2 2-4 10-2-1-6-4-1 1-1-6-4 4-2 10-2 9-3 30-3h6v-2l34-5 30-6 40-10 39-12 20-7 29-11 20-8 14-7 20-9 22-12 9-5 24-14 19-12 15-10 11-8 8-6 5-4h2v-2l4-1v-2l5-2v-2l24-18h2v-2l5-2v-2l5-2 1-3 8-6 5-4 5-5h2v-2l9-7 12-11 8-7 20-18z" fill="#B12157"/>
<path transform="translate(1300,68)" d="m0 0h7v50h14v27l14-9 19-13 1-2-6-2-11-5 2-2 43-10 8-1-5 9-21 32-4 4-2-18-4 2-13 9-19 13h-2l1 68-1 1h-14v53l-1 1h-5l-1-1-1-52h-13l-1-1v-30h-2l-2 5-10 12-11 14-3 4 1 6v47h-36l-1-35-7-2-27-5v48l-16 1v76h-6v-76h-15v-39l-14 8-14 9h-2v59l-1 1h-14v104l-5 1-1-1v-104h-15v-24l-8 7-11 12-8 10-14 15-6 4-26 7-25 6-1 57-1 1h-36l-1-24-13 19-8 11-12 17-10 14-3-2-8-16-10-17-22-40-8-14-2-1 1 41v22l-1 1h-36l-1-129-6-11-15-25-5-5-6-9-2-1-2 6-3 3h-10l1 27v19l-1 1h-6l-3-3 1-43-2-1-13-1-1-6v-10l-5 3-8 11-16 21-2 3v37l-1 38-1 1h-14v51l-1 1h-5v-52h-15l-1-1-1-17-6 11-12 19-15 24-12 20-2 4-4-4-8-14-7-10-7-11-20-32-1 31-1 1h-14v22h-6l-1-1v-21h-14l-1-36v-97l1-1h14v-50l1-1h5l1 1v50h14l1 1 1 88 17 28 2 4 7 4 1-10 1-1 12-1 1-47 6-2 2 2 1 43 2 4h4v-8l1-2h25l2-5 9-14 1-27v-47l1-1h15v-51h6v51l15-1 1 1 1 16 12-15 12-17 6-8 7-9 11-15 1-2 3 1 13 22 9 15 24 39 4 7 1-2v-34l1-30h36l1 1v130l7 14 12 22 10 18 11 19 6 11 5 9h3l2-4 12-17 10-14 14-20 3-4 1-70h15v-50l1-1h5l1 2v48l14 1 1 1v38l31-7 23-6 9-10 9-11 13-15 12-14 1-2 1-68h36l1 3 1 32 23-14 4-3v-56l1-1h15v-26l5-1 1 1v26h16l1 49 30 5 2 1v-28l1-3h16l-1-7-1-26 1-2 6-1 2 1v35h21l10-13 9-12 1-63h15z" fill="#E9B85B"/>
<path transform="translate(1078,68)" d="m0 0h2l12 17 10 13 21 28 14 19 2 4 5-5 11-15 16-21 5-7 4 5 14 19 11 14 10 14 7 9 2 1 2-5 16-21 12-16 4 2 14 19 10 13 1 3h2v23l-20 26h-17l-4-1v-35h-8l1 35h-16l-1 31-26-4-7-2v-49h-16l-1-26h-4l-1 26-15 1v56l-10 7-18 11h-1l-1-36h-36v60h-1v-25h-55l-1-1v-64h-40l6-9 13-17 13-18 10-13 15-20 11-15 15-20z" fill="#2F6FA6"/>
<path transform="translate(1300,68)" d="m0 0h7v50h14v27l14-9 19-13 1-2-6-2-11-5 2-2 43-10 8-1-5 9-21 32-4 4-2-18-4 2-13 9-19 13h-2l1 68-1 1h-14v53l-1 1h-5l-1-1-1-52h-13l-1-1v-30h-2l-2 5-10 12-11 14-3 4 1 6v47h-36l-1-35-7-2-27-5v48l-16 1v76h-6v-76h-15v-39l-14 8-14 9h-2v59l-1 1h-14v104l-5 1-1-1v-104h-15v-24l-8 7-11 12-8 10-14 15-6 4-26 7-25 6-1 57-1 1h-36l-1-24-13 19-8 11-12 17-10 14-3-2-8-16-10-17 1-2 6 10v2l5-1 8 14h3l2-4 12-17 10-14 14-20 3-4 1-70h15v-50l1-1h5l1 2v48l14 1 1 1v38l31-7 23-6 9-10 9-11 13-15 12-14 1-2 1-68h36l1 3 1 32 23-14 4-3v-56l1-1h15v-26l5-1 1 1v26h16l1 49 30 5 2 1v-28l1-3h16l-1-7-1-26 1-2 6-1 2 1v35h21l10-13 9-12 1-63h15z" fill="#E9B759"/>
<path transform="translate(1293,608)" d="m0 0h17l15 2 12 4 10 5 9 7 7 7 8 13 6 18 3 20v15l-2 18-5 17-6 12-7 9-10 9-16 8-15 4-8 1h-19l-17-3-11-4-11-6-11-10-7-10-6-13-4-16-2-18 1-21 3-16 5-14 7-11 10-11 11-7 12-5 13-3z" fill="#FDFDFB"/>
<path transform="translate(1082,300)" d="m0 0h2v24h12l-2 2 2 4-2 5-4 17-3 1-5-5-2 10-2 4-3 22-2 7-2 14 1 4v14l2 7 1 5 2 5 2 12v12l-3 8-6 3-6-2-6-1-7 3h-3l-2 5v3l-1 10 5 10 1 4h2l2 5 3 1 4 6v2h2l2 6-1 7-3 4-2 7h-10l-4 1-2-1 4 12-1 5h-3l-1-3h-7l-4-2 1 5-4 1-1-9h-2v-3l-4-3v-3h2v-6l-3-1-2-5 6-2-1-7-3-2v-3l-2-1-1-9-2-4-4 1-1-5h4l2-4-5-1-5-6-1-5-3-1-1-2h-3l-4 1v2h-2v6l-7 2h-2v6l-4 6-9 4-2 5-4-1-7-3 2-4 7-1-9-1-6-1-4-2h-5l-2-2 1-4 4 1h3l-2-10-4-7v-2l-2-1v-11l-3 1v-7l-3-7v-5l-2-1v-2h-3l-2-5 1-6 4-8 5-5 5-2h3v-18l-5 4 2-4 4-6h1v25l36-1 1-57 9-3 40-10 8-4 9-9 7-8 9-11z" fill="#4C2764"/>
<path transform="translate(1220,336)" d="m0 0h21l14 3 4 5v30l-1 3 1 1v7l-2 5h2v8l-2 4h2v8 4 8l-1 2 1 2v7l-1 4 1 9-1 3 1 5-2 6 1 1v22l-3 7-8 4-11 2h-25l-10-3-7 1-17 3h-15l-16-3-2-1-13 4-9 1h-17l-13-2-6-4-2-3-1-11 1-35 5-5 9-3 6-1h27l9 2v-42l4-5 9-3 9-1h25l9 2v-41l3-5 7-3z" fill="#E6B14F"/>
<path transform="translate(656,611)" d="m0 0h65l16 3 12 5 9 7 7 9 4 12 1 7v9l-2 10-4 9-6 8-9 8-7 4h-2l5 9 29 43 11 16 2 4-24 1h-13l-4-4-13-21-14-23-8-13-2-2h-17l-1 62-2 1h-32l-1-4z" fill="#FDFCFA"/>
<path transform="translate(1087,611)" d="m0 0h67l14 3 14 7 8 7 6 10 4 16v15l-3 14-6 12-6 7-11 7-13 5-11 2-28 1-1 57-7 1h-27l-1-4v-91z" fill="#FDFDFB"/>
<path transform="translate(512,611)" d="m0 0h67l14 3 16 8 8 8 5 10 3 11v22l-3 11-5 10-9 10-10 6-15 5-8 1-29 1 1 55-3 3h-32z" fill="#FDFDFC"/>
<path transform="translate(808,611)" d="m0 0h95v28h-60v36h55l1 1v27l-1 1h-55v42h59l1 1v27l-2 1h-92l-1-1z" fill="#FDFDFB"/>
<path transform="translate(926,172)" d="m0 0 4 2 11 14 21 28 7 9 10 13 12 15 7 10v1l-12 1h-22l-1 50-76-1v-49h-29l1-5 12-15 20-26 12-16 8-10 9-12z" fill="#2F6FA6"/>
<path transform="translate(1023,195)" d="m0 0 3 1 1 60 56 1 1 32-11 14-12 13-9 11-13 15-48 12h-6l-1-38-14-1-1-1v-48l1-1 27-2-8-11-8-10-11-14-2-5-8-11v-1l10 1 11 8 10 4 3 3 6 1-2 5 3 3v2l10 1v5l1 1 2-5 5-1 1-5h2v-32l-1-3h-2l1-3z" fill="#4C2663"/>
<path transform="translate(740,241)" d="m0 0 2 1v16h13l3 2-1 43 2 2h6v-46l10-1h2l2-6 1-2 4 2 7 11 4 4 15 25 5 9v127h-1v-70h-75l-25-1-1-12-1-51-2-3-1-11 16-21 12-16z" fill="#2F6FA6"/>
<path transform="translate(1300,68)" d="m0 0h7v50h14v27l14-9 19-13 1-2-6-2-11-5 2-2 43-10 8-1-5 9-21 32-4 4-2-18-4 2-13 9-19 13h-2l1 68-1 1h-14v53l-1 1h-5l-1-1-1-52h-13l-1-1v-30h-2l-2 5-10 12-11 14-3 4 1 6v47h-36l-1-36h19v-2h-7v-2l-10-1-3-1v-28l1-3h16l-1-7-1-26 1-2 6-1 2 1v35h21l10-13 9-12 1-63h15z" fill="#E7B352"/>
<path transform="translate(1294,637)" d="m0 0h16l10 3 9 6 6 7 5 11 3 15v25l-3 16-4 9-4 6-9 8-11 4-5 1h-10l-12-3-9-5-7-8-5-9-3-11-1-8v-24l4-18 6-11 8-8 8-4z" fill="#322562"/>
<path transform="translate(1148,247)" d="m0 0h2v39h15v28l-2-2-2-6-2 5-1 17 2 5-4 12-4-1-1 7-5 25-2 7-2 5 2 2-3 4-1 42-9-1h-30l2-2 25-1-1-4-17 1-5-2v-103l14-1 1-59 20-12z" fill="#4C2764"/>
<path transform="translate(587,234)" d="m0 0 5 5 8 10 28 38 10 13 13 19 8 10 5 7-1 5-3 5h-25v11h-7l-1-5-1-43-3-1-3 1-1 47-1 1-12 1-2 10-4-1-5-5-16-27-2-3v-86h2l2-5z" fill="#2F6FA6"/>
<path transform="translate(1011,611)" d="m0 0h34v163l-5 1h-29l-1-5v-157z" fill="#FDFCFA"/>
<path transform="translate(556,192)" d="m0 0h5l1 1v50h14l1 1v85l-5-5-10-15-6-1 6 11 13 21 2 4v32l-1 1h-14v22h-6l-1-1v-21h-14l-1-36v-97l1-1h14v-50z" fill="#FDFDFB"/>
<path transform="translate(1596,105)" d="m0 0 4 2v166h-2l-1 2-1 3 2 11-2 6-3 1-4-2-3-3-5-1-3-5-2 4v3h-2l-2-3v-12l5 1 2 4-1-4-2-3-2-4 2-2h3l-2-5 1-5 2-2-4-10-2-4 1-5h3l1-4-3-1v-2l-2-1-1-9 3-4 1-4-4-2 1-5v-6l-2-1h2l-2-5 1-4-1-8v-2h2l-2-9 1-6-1-3v-44l2-4 3-5 5-1 3 4h2l1-3h2v-2z" fill="#692769"/>
<path transform="translate(815,220)" d="m0 0h36l1 1v98l-1 30-3-3-9-16-13-22-11-18-1-6v-34z" fill="#FDFCF9"/>
<path transform="translate(1349,261)" d="m0 0h13l7 3 1 6 1 32-1 27-1 9-3 4-7 1h-7l-6 2-7-2h-9l-4-4-1-9v-17l-1-21 1-9v-10l2-8 1-2z" fill="#4C2764"/>
<path transform="translate(815,302)" d="m0 0 3 3 14 24 13 24 6 10 1 44v22l-1 1h-36z" fill="#FDFDFD"/>
<path transform="translate(1025,264)" d="m0 0 4 2 1 3 6 1 2 5 1 11 2 13-4 4-2-1-7 11-8 1 1 13v19l-5 2-25 6h-6l-1-38-14-1-1-1v-48l1-1h8l-3 7 1 6v11l1 1v7l-3 3-1-1-1 5 4 2 3 4 2-1 5 5 6 3v3l2 2v5l3-2 2-10v-6l-5-2v-4l-3-1 2-1 4 3 5 1-2-6-2-1v-4l-3-1-1-3 3-7 3-8 7-2 7-5 8 1z" fill="#332562"/>
<path transform="translate(1057,478)" d="m0 0h7l10 5 8 8 4 7v2h7l9 4 11 8 7 10 2 5v12l-5 10-6 5-6 2-8-1-9-4-8-7-5-8-3-8v-11l-6-1-10-9-5-9-2-10 3-6z" fill="#E6B14E"/>
<path transform="translate(606,389)" d="m0 0 4 5 10 16 4 5 5-10 10-16 2 4 1 10-1 56-14 2v73l-5 1-2-1v-74l-16-1v-53h2z" fill="#C51D4C"/>
<path transform="translate(890,433)" d="m0 0 4 5 9 17 4-5 11-15 5 4 1 2 1 70h-36l-1-1v-71z" fill="#C51D4C"/>
<path transform="translate(1319,154)" d="m0 0h2l1 66-1 1h-14v53l-1 1h-5l-1-1-1-52h-13l-1-1v-31l13-17 11-12z" fill="#FDFDFC"/>
<path transform="translate(1117,266)" d="m0 0h3v57l-1 1h-14v104l-5 1-1-1v-104h-15v-27l7-7 7-8 6-7z" fill="#FDFDFC"/>
<path transform="translate(1168,234)" d="m0 0 18 2v49l-15 1v76h-6v-76h-15v-40z" fill="#FDFCF9"/>
<path transform="translate(742,156)" d="m0 0h37l1 75-3-3-8-13-7-12-2-1-2 5-10 13-5 6-1-2z" fill="#C41D4C"/>
<path transform="translate(708,282)" d="m0 0 2 1v34l-1 38-1 1h-14v51l-1 1h-5v-52h-15l-1-1v-17l4-8 8-13 10-16 10-14z" fill="#FDFCF9"/>
<path transform="translate(964,264)" d="m0 0h5l1 2v48l14 1 1 1v35l-2 4-18 5h-2l-2 5-7 10-4 6h-1l-1-7v-59h15v-50z" fill="#FDFBF7"/>
<path transform="translate(623,307)" d="m0 0 4 2 1 43 2 4h4v-8l1-2h24l-2 6-14 23-12 19-7 11-3-1-12-20-11-17 1-2 5 3 1-10 1-1 12-1 1-47z" fill="#C51D4C"/>
<path transform="translate(688,201)" d="m0 0h6v51l15-1 1 1v17l-4 6-13 18-13 20-6 10-2-1v-69l1-1h15z" fill="#FDFCF9"/>
<path transform="translate(1166,155)" d="m0 0 5 1v26h16v33l-1 15-20-1-15 9h-1l-1-55 1-1h15v-26z" fill="#FDFDFD"/>
<path transform="translate(1283,191)" d="m0 0h2l1 30 9 1 1 4v39h-37v-24l1-18 3-6 13-16z" fill="#2F6EA5"/>
<path transform="translate(577,344)" d="m0 0 4 4 12 20 10 15 1 4 1 18h-44l1-5h-6v6h-15v-29h14l1 21 6 1v-22l14-1z" fill="#2F6EA5"/>
<path transform="translate(1121,639)" d="m0 0h22l9 2 8 5 4 8 1 5v8l-3 9-5 6-8 4-9 2h-18l-1-1z" fill="#4C2764"/>
<path transform="translate(547,639)" d="m0 0h22l13 4 6 7 2 7v12l-3 8-8 7-8 3-6 1h-18l-1-4v-44z" fill="#322764"/>
<path transform="translate(1300,68)" d="m0 0h7v50h14v28l-14 10-10 9-10 13h-2v-60h15z" fill="#FDFCF8"/>
<path transform="translate(1084,221)" d="m0 0h36v37l-12 7-10 8-8 8-4 5h-2z" fill="#FEFEFE"/>
<path transform="translate(760,211)" d="m0 0 4 4 8 14 8 13 12 20-1 2-9-13-2-1-2 6-3 3h-10l1 27v19l-1 1h-6l-3-3 1-43-2-1-13-1-1-6v-10l-3-1 7-10 10-13z" fill="#C41D4C"/>
<path transform="translate(922,699)" d="m0 0h60l1 2v25l-1 1h-59l-1-1z" fill="#FDFBF8"/>
<path transform="translate(691,639)" d="m0 0h19l14 3 6 4 4 8v14l-3 6-7 6-5 2-6 1h-22z" fill="#332562"/>
<path transform="translate(981,361)" d="m0 0h3v58h-36v-25l3-5 9-12 7-11 7-3z" fill="#FDFDFC"/>
<path transform="translate(781,195)" d="m0 0 5 5 14 19 8 11 4 5 2 1v-15h1v63l-2 4-12-21-14-22-3-5-3-10-1-7v-16z" fill="#2F6EA5"/>
<path transform="translate(1095,502)" d="m0 0 6 1 12 9 7 10 2 5v12l-5 10-6 5-6 2-8-1-9-4-8-7-5-8-2-5v-10l4 2 3 9h4v-11l3-5 4 1 5 3 14 6-1-4-8-11-2-4h-2v-2h-2z" fill="#F7D48D"/>
<path transform="translate(1255,227)" d="m0 0 2 2 1 3v47h-36l-1-36 21 1z" fill="#C51D4C"/>
<path transform="translate(773,223)" d="m0 0 5 5 13 22 14 22 8 14h2l3 7 10 17 13 22 9 16 1-14h1v17l7 14 12 22 10 18 11 19 2 4-1 4-3-1-6-11-3-3-13-23-11-20-4-7-2-1-4-8-12-22-14-24-6-10-16-27-17-28-4-7v-5l-5-9z" fill="#E9B759"/>
<path transform="translate(1239,170)" d="m0 0 5 1v35l20 1-7 11-11 13-6 9h-7l-13-3v-28l1-3h16l-1-7-1-26 1-2z" fill="#C51D4C"/>
<path transform="translate(559,307)" d="m0 0 4 2 12 18 5 8 17 29 14 22 11 18h2l14-23 13-21 10-17 4-2-1 4 1-1 2-1-1 4-16 26-12 19-12 20-2 4-4-4-8-14-7-10-7-11-20-32-3-3-10-17-7-11-2-3v-3z" fill="#F1C979"/>
<path transform="translate(1055,330)" d="m0 0 2 2 1 3v36l-15 2-1 10-4 1-1-1v-11h-14l-1-1v-18l1-2 16-5 8-7z" fill="#C51D4C"/>
<path transform="translate(1131,191)" d="m0 0h18l1 17v31l-10 7-9 5z" fill="#352562"/>
<path transform="translate(920,315)" d="m0 0h21l7 1v50h-1l-1-16-2-7-2 1-1 3-4-1-5-9-9-1-1-2-9-3-8-3-10-5v-3h6l8-3z" fill="#4C2764"/>
<path transform="translate(1121,639)" d="m0 0h22l9 2 8 5 4 8 1 5v8l-3 9-5 6-8 4-9 2h-18l-1-1zm22 3-2 1h-7l-6 4-2 6 3 8 1 11h-2l1 4 2 3h11l7-1 3 1 2-6 3-1 2-6-1-12-2-4h-2l-1-6-6-2z" fill="#342865"/>
<path transform="translate(859,266)" d="m0 0h26l1 1v21l-3 8-2 6h-2l-1-3-5-5-3 10-4 9-1-4 1-4-3-1v-2h-2l-2-14v-6l-2-8v-7z" fill="#4C2764"/>
<path transform="translate(539,299)" d="m0 0h1l1 46-1 1h-35l2-5 10-13 8-11 9-12z" fill="#2F70A7"/>
<path transform="translate(740,204)" d="m0 0h2l1 20-3 7-10 13-10 14-9 12h-1l-1-18-1-3 7-11 13-17z" fill="#306DA4"/>
<path transform="translate(623,307)" d="m0 0 4 2 1 43 2 4h4v-8l1-2h24l-2 6-12 20h-2l-2-4v-10l-13 1-4-2-1-11-2-1-1 12-1 1h-12l-1 14-1 3h-2l-5-8 1-2 5 3 1-10 1-1 12-1 1-47z" fill="#392562"/>
<path transform="translate(1038,306)" d="m0 0h4l1 10 1 1 15 1-6 8-9 10-5 6-15 4h-3v-27l13-1 2-1 1-10z" fill="#C41D4C"/>
<path transform="translate(1187,237)" d="m0 0 16 2 17 3 2 3h-2v21h-4l-1-2-1-17-8-1-9-1-5 1-1 2h-1v8l1 2 1 11 1 12-2 6-1 2h-2l-1 2-4-1-3-1-6 2-1 4-1 41h-1v-50l7-1h9z" fill="#3B2562"/>
<path transform="translate(1158,337)" d="m0 0 3 1 1 2 1 15 1 3h-2l-1 3-2 1v12l4 8-1 4-21 3 3-12 3-9 1-7 4-17 4-1z" fill="#332562"/>
<path transform="translate(1500,353)" d="m0 0h3l2 5 1 13v22l-3 7-5 1-1-3h-2l-3-11-1-7 1-6v-8l6-10z" fill="#322562"/>
<path transform="translate(1195,301)" d="m0 0 5 2 4 3 1 4 1 5-1 4 2 7v5h2l-2 4-4 5-5 3-2 4h-3l-1-8 2-7-2-4-3-3 1-9 2-3 2-11z" fill="#332562"/>
<path transform="translate(1187,215)" d="m0 0 29 1v20l-10-1-18-3-1-1z" fill="#4E2663"/>
<path transform="translate(620,460)" d="m0 0h7v74l-5 1-2-1z" fill="#832563"/>
<path transform="translate(1595,10)" d="m0 0h2l1 5v7l-1 5v28l-1 8-1 7-5-1-2-6v-3l-1-6 1-5-1-4v-33l4-1z" fill="#4B2663"/>
<path transform="translate(741,238)" d="m0 0 2 2v17h15l6 1 4-1h9l-2 2h-10l1 27v19l-1 1h-6l-3-3 1-43-2-1-13-1-1-6v-10l-3-1z" fill="#872562"/>
<path transform="translate(1144,492)" d="m0 0 10 3 8 1h15l17-3 7-1 10 3h34l1 3-15 2-9 1-13-2-17-1-3 1v2l-11 2h-18l-8-4-6-2-4-3z" fill="#3B2561"/>
<path transform="translate(1136,194)" d="m0 0h6l2 6-1 26-1 3v6l-1 2-3 1-1 2 3 1-1 3 3 1-8 4v-2h2v-2h-3v-5h2l1-3h-2l-1-14v-27z" fill="#4C2764"/>
<path transform="translate(860,213)" d="m0 0 7 7 9 1-2 7v3l-1 7-3 7h-2l-3 6-3 7-4 1-1-7 2-10v-9l1-6v-7l-2-5z" fill="#4B2663"/>
<path transform="translate(541,377)" d="m0 0h14l1 21 5 1v1h-5v6h-15z" fill="#2F70A7"/>
<path transform="translate(773,223)" d="m0 0 5 5 13 22 14 22 8 14-1 5 3 6-1 2-7-10-11-19-17-28-1-7-5-9z" fill="#F3CB7D"/>
<path transform="translate(1027,372)" d="m0 0 9 1v12h8l-3 13-2 9h-6l-4-4-1-2-2-23-2-5z" fill="#322562"/>
<path transform="translate(1239,170)" d="m0 0 5 1v35l20 1-2 3-17-2-23-1v30h-2v-28l1-3h16l-1-7-1-26 1-2z" fill="#9A225A"/>
<path transform="translate(760,202)" d="m0 0 3 1 11 19 1 6 4 8-2 2-10-16-6-10-4 4-8 11-7 10-5 7h-5l-1-2 16-22 10-13z" fill="#E7B454"/>
<path transform="translate(928,412)" d="m0 0 4 4-10 15-11 15-7 10-3-2-8-16-10-17 1-2 6 10v2l5-1 8 14h3l2-4 12-17z" fill="#E6B14F"/>
<path transform="translate(1586,100)" d="m0 0 14 1v6h-4-6v2l-3 3h-2l-1 2-2-6-5 2-3 7-1 2v45h1v6l-1 4 1 4v2h-2v2h-2v-40l1-39 4-1 10-1z" fill="#4C2764"/>
<path transform="translate(623,307)" d="m0 0h2l1 3 1 48-3-1-1-11-2-1-1 12-1 1h-12l-1 14-1 3h-2l-5-8 1-2 5 3 1-10 1-1 12-1 1-47z" fill="#842563"/>
<path transform="translate(1222,659)" d="m0 0 3 1-1 2 3 1-2 13-1 26-1 7h-4l-3-11v-20l2-6 2-12z" fill="#332966"/>
<path transform="translate(1148,247)" d="m0 0h2v39h15l-1 2h-2v6h-3l-2-3-8-1-3-5-2-16v-11l-7-1v2l-6 1 2-4z" fill="#382663"/>
<path transform="translate(664,341)" d="m0 0 1 2v1l2-1-1 4-16 26-12 19-5 8h-5l1-4 12-20 10-16 10-17z" fill="#F2CB7D"/>
<path transform="translate(559,307)" d="m0 0 4 2 12 18 5 8 8 14-2 3-1 4-7-11-3-3-10-17-7-11-2-3v-3z" fill="#E8B658"/>
<path transform="translate(859,372)" d="m0 0h4l13 24 13 23 5 9-1 4-3-1-6-11-3-3-13-23-10-18z" fill="#F3CD80"/>
<path transform="translate(902,398)" d="m0 0 5 1 1 37 2 1-2 4-4 4-3-3-5-9 4-1 1-33z" fill="#B22056"/>
<path transform="translate(1264,663)" d="m0 0h2v2l3 1v9l-3 12h-2l2 10-1 7 1 9-2 2-1 3-2-6-1-8v-24l3-15z" fill="#492D6A"/>
<path transform="translate(1190,256)" d="m0 0 1 2 1 11 1 12-2 6-1 2h-2l-1 2-4-1-3-1-6 2-1 4-1 41h-1v-50l7-1h9v-26z" fill="#313570"/>
<path transform="translate(1160,305)" d="m0 0 4 2-1 1 2 6v43l-3-2-1-15-3-4 1-4-2-5 1-16z" fill="#4A2663"/>
<path transform="translate(1467,30)" d="m0 0 3 3v19l1 7-1 28-1 9-2 6-2-4v-36l1-21 1-4-1-6z" fill="#4B2663"/>
<path transform="translate(622,466)" d="m0 0 3 1v62l-3 1-1-2v-61z" fill="#B22157"/>
<path transform="translate(198,900)" d="m0 0 3 3-1 7v43l1 10-1 9-3-2-1-4v-56l-1-4z" fill="#762767"/>
<path transform="translate(1198,641)" d="m0 0 4 4 2 6h-2l1 7 2 5 1 9-2 5-1 9-3 2-2 3-2-1v2h-3l3-9 3-14v-15l-2-11z" fill="#352865"/>
<path transform="translate(1055,330)" d="m0 0 2 2 1 3v36l-14 2v-2l2-1 9-1 1-19-7-2-2-7 3-5z" fill="#B22056"/>
<path transform="translate(601,380)" d="m0 0 7 6 3 5-1 2 5-1 7 12h2l4-5 4 1-2 5-6 11-4-4-8-14-7-10-4-6z" fill="#E7B352"/>
<path transform="translate(1260,371)" d="m0 0h1v81l-2 1-2-5 1-2-1-11 1-2v-7l-1-3 1-1v-8-4l1-8h-2l2-12h-2l1-5v-7l-1-2z" fill="#4E2460"/>
<path transform="translate(1203,167)" d="m0 0h17l-2 4-10 13-3 4h-2z" fill="#322562"/>
<path transform="translate(639,389)" d="m0 0 2 4 1 10-1 56-12 1 3-2h8l-1-49-1-2h-2l-1-1-3 1-2-1 2-6z" fill="#B12056"/>
<path transform="translate(606,389)" d="m0 0h1l1 13 3 9-2 4h-2v40l2 1v2h5v1h-10v-53h2z" fill="#A3225A"/>
<path transform="translate(890,433)" d="m0 0 4 5 2 6-2 2h-3l-1 54-2 3v-64z" fill="#A2225B"/>
<path transform="translate(756,213)" d="m0 0h2l-2 5-8 10-8 12-4 4-5-1 4-7 6-8 5-7 4-2 5-5z" fill="#E6B250"/>
<path transform="translate(922,438)" d="m0 0 4 2v67l5-2v3l-4 3h-2l-1-4-1-66z" fill="#682662"/>
<path transform="translate(1239,170)" d="m0 0 5 1v35l20 1-2 3-17-2-3-2v-34h-5l1 20v14h-1l-1-7-1-26 1-2z" fill="#7B2563"/>
<path transform="translate(1423,236)" d="m0 0 5 1 2 1-1 12-4 8-4-2-1-11 1-7h2z" fill="#322562"/>
<path transform="translate(1296,221)" d="m0 0 4 1-1 25-1 16-3 1v-42z" fill="#312B67"/>
<path transform="translate(1252,223)" d="m0 0 2 1 4-1-2 4-14 18h-8l1-2h5v-2h-7v-1h7l2-4 8-11z" fill="#E6B14E"/>
<path transform="translate(730,243)" d="m0 0h6l-2 5-12 16-4 1-1-4z" fill="#F3CC7E"/>
<path transform="translate(1258,454)" d="m0 0h1l1 18 3 1v5l-1 1-2 10-6 6h-5l1-3 5-3 2-6v-12l1-10-2-1z" fill="#532460"/>
<path transform="translate(987,381)" d="m0 0 3 2 2 5-1 15h-2l-2 10h-1v-29z" fill="#322562"/>
<path transform="translate(1153,386)" d="m0 0h11v1l-17 3-4 4v3l12 3 10 1h18l-2 2h-25l-11-2-4-2v-7l5-4z" fill="#F7D48C"/>
<path transform="translate(198,909)" d="m0 0 2 1v43l1 10-1 9-2-1z" fill="#6A286A"/>
<path transform="translate(1160,305)" d="m0 0 4 2-1 1 1 6-1 3-1 15h-3l-2-5 1-16z" fill="#322562"/>
<path transform="translate(894,513)" d="m0 0h17l1 3h-2l-1 3-9 1-6-2-4-3h4z" fill="#4C2764"/>
<path transform="translate(901,397)" d="m0 0h6l-1 2h-4l-1 33-3 2-4-4-4-8 3 1 2 3h5v-9h-2l-1-7h3v-12z" fill="#542663"/>
<path transform="translate(1528,124)" d="m0 0h4l1 8-1 11-1 3 1 4-4 1v-9l-1-10z" fill="#4C2764"/>
<path transform="translate(644,381)" d="m0 0 1 2-1 3-1 20-1 52h-1v-60l-1-11z" fill="#7C2665"/>
<path transform="translate(902,398)" d="m0 0h4v24l-4 2z" fill="#BE1E4F"/>
<path transform="translate(1245,338)" d="m0 0h7l5 3 2 3v6l-14 4h-8l2-2 11-3h5l-2-7-8-3z" fill="#F6D289"/>
<path transform="translate(619,329)" d="m0 0h1v28l-1 1h-12l-1 14-1 3h-2l-5-8 1-2 5 3 1-10 1-1 12-1z" fill="#6F2665"/>
<path transform="translate(768,257)" d="m0 0h9l-2 2h-10l1 27v19l-1 1h-6l-2-3 7 1v-46z" fill="#6B2666"/>
<path transform="translate(741,238)" d="m0 0 2 2v17h15l1 2v22l-2 4v-25l-2-1-13-1-1-6v-10l-3-1z" fill="#5F2765"/>
<path transform="translate(1193,348)" d="m0 0 2 1 1 38-7-2 2-1v-5h2z" fill="#3D2562"/>
<path transform="translate(817,215)" d="m0 0h16l3 3 7 1v1h-27z" fill="#4C2764"/>
<path transform="translate(1216,243)" d="m0 0 3 1 1 4v18h-4z" fill="#2F70A7"/>
<path transform="translate(778,159)" d="m0 0h1l1 72-3-3z" fill="#A72159"/>
<path transform="translate(1187,215)" d="m0 0 29 1v20h-2v-18h-21l-3 1v3h-2v6h-1z" fill="#322562"/>
<path transform="translate(601,372)" d="m0 0 4 4 9 15-1 3-3-1-1-5-7-7-2-1-1-5h2z" fill="#F2CB7C"/>
<path transform="translate(432,1084)" d="m0 0 4 3 1 4h-2v6l-1-2-3-1-3 2-1-5h-4v-3h2v-2h2l1 3z" fill="#822563"/>
<path transform="translate(1138,397)" d="m0 0h1l1 36h-2l-1-5v-30z" fill="#382562"/>
<path transform="translate(452,873)" d="m0 0h2v2h3l2 10-3 1-6-4-1-5z" fill="#892562"/>
<path transform="translate(1255,227)" d="m0 0 2 2 1 3v47h-1l-1-41-3-5 1-5z" fill="#B22056"/>
<path transform="translate(1266,211)" d="m0 0 1 2-8 10-6 2 1-5 6-8h5z" fill="#F3CC7E"/>
<path transform="translate(641,359)" d="m0 0 7 2 4-2-6 11-1 2h-2l-2-4z" fill="#652663"/>
<path transform="translate(1243,171)" d="m0 0h1v35l20 1-2 3-17-2-2-1z" fill="#362562"/>
<path transform="translate(197,523)" d="m0 0h1v5l1 3-4 2 2 2-6 1-1-5 1-3-2-1 4-2h4z" fill="#702768"/>
<path transform="translate(601,380)" d="m0 0 7 6 3 5-1 2 5-1 1 3-2 2 4 7-1 2-16-24z" fill="#E6B24F"/>
<path transform="translate(637,358)" d="m0 0h4l1 10 2 5-3 5h-2l-3-6 3-7 1-6z" fill="#AF2157"/>
<path transform="translate(317,611)" d="m0 0 3 4 9 16 3 6-1 2-6-7-3-5-5-13z" fill="#6A286A"/>
<path transform="translate(907,400)" d="m0 0h1l1 28 1 3h4l-2 5-4 1-1-1z" fill="#4F2663"/>
<path transform="translate(1119,520)" d="m0 0 3 1 3 7v8l-3 9-2 1 1-7v-12z" fill="#432562"/>
<path transform="translate(1269,201)" d="m0 0 4 4-5 7-6 1-1-2z" fill="#E6B250"/>
<path transform="translate(1038,306)" d="m0 0h4l1 10 1 2h-8l1-11z" fill="#B41F54"/>
<path transform="translate(1260,221)" d="m0 0 1 2-2 32h-1l-1-23-1-6z" fill="#6F2563"/>
<path transform="translate(1260,371)" d="m0 0h1v25l-2 1v-7h-2l1-5v-7l-1-2z" fill="#492461"/>
<path transform="translate(888,503)" d="m0 0 2 3v3h33l2-2v4h-36l-1-1z" fill="#AA2158"/>
<path transform="translate(918,435)" d="m0 0 4 4h-2l-1 4-9 7-1-2z" fill="#AD2157"/>
<path transform="translate(1030,588)" d="m0 0h6l3 4v2l-2 1h-9l1-5z" fill="#4C2764"/>
<path transform="translate(1260,430)" d="m0 0h1v22l-2 1-2-5 1-2-1-11z" fill="#502460"/>
<path transform="translate(1037,372)" d="m0 0 6 1-1 10-4 1-1-1z" fill="#B02157"/>
<path transform="translate(901,399)" d="m0 0h1v39l-3 1-3-6 4-1z" fill="#872562"/>
<path transform="translate(780,244)" d="m0 0 3 3 9 15-1 2-9-13-2-1-2 6-1-3z" fill="#522563"/>
<path transform="translate(1056,352)" d="m0 0h2v19l-14 2v-2l2-1 9-1z" fill="#9F225B"/>
<path transform="translate(758,205)" d="m0 0h2l1 3-2 5-4 2-5 5-3 2 2-4z" fill="#F2CA7B"/>
<path transform="translate(901,397)" d="m0 0h6l-1 2h-4l-1 26h-1v-8h-2l-1-7h3v-12z" fill="#4C2764"/>
<path transform="translate(906,399)" d="m0 0h1l1 37 2 1-2 4-3-1z" fill="#8A2461"/>
<path transform="translate(621,345)" d="m0 0 3 1 1 12h-6l1-11z" fill="#B22157"/>
<path transform="translate(797,259)" d="m0 0 4 4 8 12 5 10-1 3-12-21-4-6z" fill="#532562"/>
<path transform="translate(614,395)" d="m0 0 4 2 4 7v3l-4 1-3-8-2-4z" fill="#F5CF85"/>
<path transform="translate(1108,533)" d="m0 0 2 2-1 6-4 6h-7l1-4 8-1z" fill="#E6B14E"/>
<path transform="translate(197,877)" d="m0 0 3 1v8l1 4-1 7h-2l-1-11-1-4z" fill="#6E2768"/>
<path transform="translate(1134,717)" d="m0 0h9v3h-2l1 3-8-1-1-4z" fill="#4C2764"/>
<path transform="translate(644,381)" d="m0 0 1 2-1 3-1 20h-1l-2-13v-6z" fill="#6C2562"/>
<path transform="translate(986,360)" d="m0 0h6l-1 4-1 3-4 2-1-1v-7z" fill="#342562"/>
<path transform="translate(947,394)" d="m0 0h1v24l-2-4v-14l-5 4 2-4z" fill="#512663"/>
<path transform="translate(1136,239)" d="m0 0 4 2-1 3 3 1-8 4v-2h2v-2h-3v-5z" fill="#542663"/>
<path transform="translate(1191,693)" d="m0 0h2l-1 5-2 3h-3v2l-5 3v2l-4-1 10-10z" fill="#3A2E6A"/>
<path transform="translate(1198,641)" d="m0 0 4 4 2 6h-2l1 3-2 1-2-1-2-11z" fill="#352C68"/>
<path transform="translate(577,344)" d="m0 0 4 4 11 18-1 2-10-15-4-7z" fill="#522563"/>
<path transform="translate(428,932)" d="m0 0 7 1v2l2 1-7 2-1 2-1-3h-2z" fill="#852563"/>
<path transform="translate(1260,452)" d="m0 0h2v14l-1 6-2-2v-17z" fill="#322562"/>
<path transform="translate(1274,196)" d="m0 0 3 2-1 4-2 3-4-1v-5z" fill="#F4CD81"/>
<path transform="translate(286,553)" d="m0 0 2 1 11 22-1 2-5-7-4-10-3-6z" fill="#6A286A"/>
<path transform="translate(1187,201)" d="m0 0h6l-2 6-4 5z" fill="#322562"/>
<path transform="translate(198,900)" d="m0 0 3 3-2 6-1 7h-1l-2-10z" fill="#712768"/>
<path transform="translate(765,286)" d="m0 0h1v19l-1 1h-6l-2-3 7 1z" fill="#582765"/>
<path transform="translate(1106,400)" d="m0 0h1l1 12 2 3-1 3h-2l1 4h-2z" fill="#322562"/>
<path transform="translate(461,1117)" d="m0 0h4l2 7 3 1-3 2-3-2-3-5z" fill="#782666"/>
<path transform="translate(1e3 517)" d="m0 0 4 1 3 2-2 4-5-1-1-3z" fill="#4C2764"/>
<path transform="translate(716,262)" d="m0 0 2 1v2h2l-2 4-3 3-2-6z" fill="#E6B14E"/>
<path transform="translate(435,1092)" d="m0 0 5 4 1 2 3 1-2 2-4-2-1-1v3l-2-1z" fill="#7B2665"/>
<path transform="translate(426,979)" d="m0 0 3 1 1 5h-2l-1 20h-1z" fill="#762666"/>
<path transform="translate(620,528)" d="m0 0h2v2l4-2v6l-4 1-2-1z" fill="#842563"/>
<path transform="translate(598,365)" d="m0 0 6 3 1-3v10h-2l-5-8z" fill="#602662"/>
<path transform="translate(454,877)" d="m0 0 1 2h2l2 3-1 3-2 1-4-3z" fill="#762666"/>
<path transform="translate(198,852)" d="m0 0 2 2v9l1 5-2 3-1-5z" fill="#6A286A"/>
<path transform="translate(432,1096)" d="m0 0 2 3v3h3l-2 4-5-3v-4h2z" fill="#862562"/>
<path transform="translate(887,499)" d="m0 0h1l1 12-2 3h-2l-1-8 2 1z" fill="#4D2764"/>
<path transform="translate(880,471)" d="m0 0h1l1 17-4-5z" fill="#4C2764"/>
<path transform="translate(1257,440)" d="m0 0h2v6l-3 2h-3l1-4z" fill="#F4CE83"/>
<path transform="translate(1249,206)" d="m0 0 15 1-2 3-17-2z" fill="#632563"/>
<path transform="translate(1260,345)" d="m0 0 2 4-1 10-2 1-1-10h2z" fill="#432461"/>
<path transform="translate(1260,418)" d="m0 0h1v12l-2 1-2-8z" fill="#452461"/>
<path transform="translate(741,238)" d="m0 0 2 2v17l-2-2v-13l-3-1z" fill="#782460"/>
<path transform="translate(197,854)" d="m0 0h1l1 16 1 3h-3l-1-4z" fill="#742767"/>
<path transform="translate(1184,621)" d="m0 0h2v2l4 2 1 4h2l1 4h-2l-6-8-3-3z" fill="#362D69"/>
<path transform="translate(1044,593)" d="m0 0 3 1-1 5-4 1-1-4z" fill="#4C2764"/>
<path transform="translate(1007,532)" d="m0 0 5 1-1 4-3 2-3-5h2z" fill="#4B2663"/>
<path transform="translate(1224,716)" d="m0 0 3 4-1 6-1-4-3-1v-4z" fill="#362865"/>
<path transform="translate(861,339)" d="m0 0 2 3 2 5v4h-2l-3-9z" fill="#4C2764"/>
<path transform="translate(1082,300)" d="m0 0 2 1-1 3-8 6-2-1z" fill="#562663"/>
<path transform="translate(1130,258)" d="m0 0 2 1-3 4h-2v2l-4-1 5-5z" fill="#422561"/>
</svg>
